<?xml version="1.0" standalone="no"?>
<svg viewBox="0 0 200 200" xmlns="http://www.w3.org/2000/svg">
  <path fill="#4A0B0B" d="M32,-52.1C44.2,-42,58.7,-37.7,69.1,-27.8C79.5,-17.8,85.9,-2.3,83.6,11.9C81.4,26,70.5,38.8,59,50C47.6,61.2,35.6,70.7,22.3,73.5C9,76.3,-5.5,72.4,-21.4,69.4C-37.4,66.4,-54.6,64.3,-64.1,54.8C-73.5,45.2,-75,28.1,-75.4,12.1C-75.8,-4,-75,-18.9,-66.8,-27.9C-58.6,-36.8,-43,-39.7,-30.6,-49.6C-18.2,-59.6,-9.1,-76.7,0.4,-77.3C9.9,-77.9,19.8,-62.1,32,-52.1Z" transform="translate(100 100)" />
</svg>
